<svg width="39" height="39" viewBox="0 0 39 39" fill="none" xmlns="http://www.w3.org/2000/svg">
<path d="M32.4249 0.699951C30.4781 0.699951 28.9 2.27815 28.9 4.22495V34.7749C28.9 36.7218 30.4781 38.2999 32.4249 38.2999H34.7749C36.7218 38.2999 38.2999 36.7218 38.2999 34.7749V4.22495C38.2999 2.27815 36.7218 0.699951 34.7749 0.699951H32.4249Z" fill="#626262" fill-opacity="0.1"/>
<path d="M18.325 10.1C16.3781 10.1 14.8 11.6781 14.8 13.625V34.7749C14.8 36.7218 16.3781 38.2999 18.325 38.2999H20.6749C22.6218 38.2999 24.2 36.7218 24.2 34.7749V13.625C24.2 11.6781 22.6218 10.1 20.6749 10.1H18.325Z" fill="#626262" fill-opacity="0.1"/>
<path d="M4.22495 19.5C2.27815 19.5 0.699951 21.0781 0.699951 23.025V34.7749C0.699951 36.7218 2.27815 38.2999 4.22495 38.2999H6.57495C8.52176 38.2999 10.1 36.7218 10.1 34.7749V23.025C10.1 21.0781 8.52175 19.5 6.57495 19.5H4.22495Z" fill="#626262" fill-opacity="0.1"/>
</svg>
