<svg width="21" height="22" viewBox="0 0 21 22" fill="none" xmlns="http://www.w3.org/2000/svg">
<g clip-path="url(#clip0_324_23120)">
<path d="M16.2649 13.7952L12.4507 17.61L14.0793 19.2384L17.8935 15.4236L16.2649 13.7952Z" fill="currentColor"/>
<path d="M11.4517 18.6156C11.4102 18.6571 11.3687 18.7193 11.3687 18.7816L11.0367 20.2546C10.9745 20.5036 11.2027 20.7318 11.4517 20.6696L12.9247 20.3376C12.9869 20.3169 13.0492 20.2961 13.0907 20.2546L13.5471 19.7982L11.9288 18.1799L11.4517 18.6156Z" fill="currentColor"/>
<path d="M19.2111 13.5948L18.07 12.4745C17.9455 12.35 17.7173 12.35 17.5928 12.4745L16.8252 13.2421L18.4434 14.8604L19.2111 14.0927C19.3563 13.9475 19.3563 13.74 19.2111 13.5948Z" fill="currentColor"/>
<path d="M15.2899 13.3874V1.78996C15.2899 1.33353 14.9164 0.960083 14.46 0.960083H2.50981C2.05337 0.960083 1.67993 1.33353 1.67993 1.78996V16.0223C1.67993 16.4787 2.05337 16.8522 2.50981 16.8522H11.8459L15.2899 13.3874ZM7.42681 3.76091H12.1363C12.406 3.76091 12.6135 3.98912 12.6135 4.23808C12.6135 4.50779 12.3853 4.71526 12.1363 4.71526H7.42681C7.1571 4.71526 6.94963 4.48705 6.94963 4.23808C6.92888 3.96837 7.1571 3.76091 7.42681 3.76091ZM7.42681 6.85218H12.1363C12.406 6.85218 12.6135 7.0804 12.6135 7.32936C12.6135 7.59907 12.3853 7.80654 12.1363 7.80654H7.42681C7.1571 7.80654 6.94963 7.57832 6.94963 7.32936C6.92888 7.0804 7.1571 6.85218 7.42681 6.85218ZM7.42681 9.98496H12.1363C12.406 9.98496 12.6135 10.2132 12.6135 10.4621C12.6135 10.7318 12.3853 10.9393 12.1363 10.9393H7.42681C7.1571 10.9393 6.94963 10.7111 6.94963 10.4621C6.92888 10.1924 7.1571 9.98496 7.42681 9.98496ZM5.18615 14.0721H4.83345C4.56374 14.0721 4.35627 13.8439 4.35627 13.5949C4.35627 13.3252 4.58449 13.1177 4.83345 13.1177H5.18615C5.45586 13.1177 5.66333 13.3459 5.66333 13.5949C5.68407 13.8439 5.45586 14.0721 5.18615 14.0721ZM5.18615 10.9393H4.83345C4.56374 10.9393 4.35627 10.7111 4.35627 10.4621C4.35627 10.1924 4.58449 9.98496 4.83345 9.98496H5.18615C5.45586 9.98496 5.66333 10.2132 5.66333 10.4621C5.68407 10.7318 5.45586 10.9393 5.18615 10.9393ZM5.18615 7.82729H4.83345C4.56374 7.82729 4.35627 7.59907 4.35627 7.35011C4.35627 7.0804 4.58449 6.87293 4.83345 6.87293H5.18615C5.45586 6.87293 5.66333 7.10115 5.66333 7.35011C5.68407 7.61982 5.45586 7.82729 5.18615 7.82729ZM5.18615 4.73601H4.83345C4.56374 4.73601 4.35627 4.50779 4.35627 4.25883C4.35627 3.98912 4.58449 3.78165 4.83345 3.78165H5.18615C5.45586 3.78165 5.66333 4.00987 5.66333 4.25883C5.68407 4.50779 5.45586 4.73601 5.18615 4.73601ZM6.92888 13.5742C6.92888 13.3045 7.1571 13.097 7.40606 13.097H12.1156C12.3853 13.097 12.5928 13.3252 12.5928 13.5742C12.5928 13.8439 12.3646 14.0513 12.1156 14.0513H7.42681C7.1571 14.0721 6.92888 13.8439 6.92888 13.5742Z" fill="currentColor"/>
</g>
<defs>
<clipPath id="clip0_324_23120">
<rect width="20.16" height="20.16" fill="white" transform="translate(0 0.960327)"/>
</clipPath>
</defs>
</svg>
