<svg width="15" height="15" viewBox="0 0 15 15" fill="none" xmlns="http://www.w3.org/2000/svg">
<path d="M4.30479 8.57166C4.30479 8.28171 4.53984 8.04666 4.82979 8.04666H4.83679C5.12673 8.04666 5.36179 8.28171 5.36179 8.57166V8.57866C5.36179 8.8686 5.12673 9.10366 4.83679 9.10366H4.82979C4.53984 9.10366 4.30479 8.8686 4.30479 8.57866V8.57166Z" fill="#939393"/>
<path d="M4.82979 9.44666C4.53984 9.44666 4.30479 9.68171 4.30479 9.97166V9.97866C4.30479 10.2686 4.53984 10.5037 4.82979 10.5037H4.83679C5.12673 10.5037 5.36179 10.2686 5.36179 9.97866V9.97166C5.36179 9.68171 5.12673 9.44666 4.83679 9.44666H4.82979Z" fill="#939393"/>
<path d="M5.70479 8.57166C5.70479 8.28171 5.93984 8.04666 6.22979 8.04666H6.23679C6.52673 8.04666 6.76179 8.28171 6.76179 8.57166V8.57866C6.76179 8.8686 6.52673 9.10366 6.23679 9.10366H6.22979C5.93984 9.10366 5.70479 8.8686 5.70479 8.57866V8.57166Z" fill="#939393"/>
<path d="M6.22979 9.44666C5.93984 9.44666 5.70479 9.68171 5.70479 9.97166V9.97866C5.70479 10.2686 5.93984 10.5037 6.22979 10.5037H6.23679C6.52673 10.5037 6.76179 10.2686 6.76179 9.97866V9.97166C6.76179 9.68171 6.52673 9.44666 6.23679 9.44666H6.22979Z" fill="#939393"/>
<path d="M7.10479 7.17166C7.10479 6.88171 7.33984 6.64666 7.62979 6.64666H7.63679C7.92673 6.64666 8.16179 6.88171 8.16179 7.17166V7.17866C8.16179 7.4686 7.92673 7.70366 7.63679 7.70366H7.62979C7.33984 7.70366 7.10479 7.4686 7.10479 7.17866V7.17166Z" fill="#939393"/>
<path d="M7.62979 8.04666C7.33984 8.04666 7.10479 8.28171 7.10479 8.57166V8.57866C7.10479 8.8686 7.33984 9.10366 7.62979 9.10366H7.63679C7.92673 9.10366 8.16179 8.8686 8.16179 8.57866V8.57166C8.16179 8.28171 7.92673 8.04666 7.63679 8.04666H7.62979Z" fill="#939393"/>
<path d="M7.10479 9.97166C7.10479 9.68171 7.33984 9.44666 7.62979 9.44666H7.63679C7.92673 9.44666 8.16179 9.68171 8.16179 9.97166V9.97866C8.16179 10.2686 7.92673 10.5037 7.63679 10.5037H7.62979C7.33984 10.5037 7.10479 10.2686 7.10479 9.97866V9.97166Z" fill="#939393"/>
<path d="M9.02979 6.64666C8.73984 6.64666 8.50479 6.88171 8.50479 7.17166V7.17866C8.50479 7.4686 8.73984 7.70366 9.02979 7.70366H9.03679C9.32673 7.70366 9.56179 7.4686 9.56179 7.17866V7.17166C9.56179 6.88171 9.32673 6.64666 9.03679 6.64666H9.02979Z" fill="#939393"/>
<path d="M8.50479 8.57166C8.50479 8.28171 8.73984 8.04666 9.02979 8.04666H9.03679C9.32673 8.04666 9.56179 8.28171 9.56179 8.57166V8.57866C9.56179 8.8686 9.32673 9.10366 9.03679 9.10366H9.02979C8.73984 9.10366 8.50479 8.8686 8.50479 8.57866V8.57166Z" fill="#939393"/>
<path d="M9.02979 9.44666C8.73984 9.44666 8.50479 9.68171 8.50479 9.97166V9.97866C8.50479 10.2686 8.73984 10.5037 9.02979 10.5037H9.03679C9.32673 10.5037 9.56179 10.2686 9.56179 9.97866V9.97166C9.56179 9.68171 9.32673 9.44666 9.03679 9.44666H9.02979Z" fill="#939393"/>
<path d="M9.90479 7.17166C9.90479 6.88171 10.1398 6.64666 10.4298 6.64666H10.4368C10.7267 6.64666 10.9618 6.88171 10.9618 7.17166V7.17866C10.9618 7.4686 10.7267 7.70366 10.4368 7.70366H10.4298C10.1398 7.70366 9.90479 7.4686 9.90479 7.17866V7.17166Z" fill="#939393"/>
<path d="M10.4298 8.04666C10.1398 8.04666 9.90479 8.28171 9.90479 8.57166V8.57866C9.90479 8.8686 10.1398 9.10366 10.4298 9.10366H10.4368C10.7267 9.10366 10.9618 8.8686 10.9618 8.57866V8.57166C10.9618 8.28171 10.7267 8.04666 10.4368 8.04666H10.4298Z" fill="#939393"/>
<path fill-rule="evenodd" clip-rule="evenodd" d="M4.65479 1.57166C4.94473 1.57166 5.17979 1.80671 5.17979 2.09666V2.97166H10.0798V2.09666C10.0798 1.80671 10.3148 1.57166 10.6048 1.57166C10.8947 1.57166 11.1298 1.80671 11.1298 2.09666V2.97166H11.3048C12.3679 2.97166 13.2298 3.83351 13.2298 4.89666V10.8467C13.2298 11.9098 12.3679 12.7717 11.3048 12.7717H3.95479C2.89164 12.7717 2.02979 11.9098 2.02979 10.8467V4.89666C2.02979 3.83351 2.89164 2.97166 3.95479 2.97166H4.12979V2.09666C4.12979 1.80671 4.36484 1.57166 4.65479 1.57166ZM3.95479 5.42166C3.47154 5.42166 3.07979 5.81341 3.07979 6.29666V10.8467C3.07979 11.3299 3.47154 11.7217 3.95479 11.7217H11.3048C11.788 11.7217 12.1798 11.3299 12.1798 10.8467V6.29666C12.1798 5.81341 11.788 5.42166 11.3048 5.42166H3.95479Z" fill="#939393"/>
</svg>
