<svg width="21" height="21" viewBox="0 0 21 21" fill="none" xmlns="http://www.w3.org/2000/svg">
<path d="M10.7601 8.88009C9.83608 8.88009 9.08008 9.63609 9.08008 10.5601C9.08008 11.4841 9.83608 12.2401 10.7601 12.2401C11.6841 12.2401 12.4401 11.4841 12.4401 10.5601C12.4401 9.63609 11.6841 8.88009 10.7601 8.88009ZM10.7601 3.84009C9.83608 3.84009 9.08008 4.59609 9.08008 5.52009C9.08008 6.44409 9.83608 7.20009 10.7601 7.20009C11.6841 7.20009 12.4401 6.44409 12.4401 5.52009C12.4401 4.59609 11.6841 3.84009 10.7601 3.84009ZM10.7601 13.9201C9.83608 13.9201 9.08008 14.6761 9.08008 15.6001C9.08008 16.5241 9.83608 17.2801 10.7601 17.2801C11.6841 17.2801 12.4401 16.5241 12.4401 15.6001C12.4401 14.6761 11.6841 13.9201 10.7601 13.9201Z" fill="#393D54"/>
</svg>
