<svg width="36" height="36" viewBox="0 0 39 39" fill="none" xmlns="http://www.w3.org/2000/svg">
<path d="M15.9757 11.4983V18.8583C15.9757 19.5583 16.3557 20.2183 16.9557 20.5783L23.1957 24.2783C23.9157 24.6983 24.8357 24.4583 25.2557 23.7583C25.6757 23.0383 25.4557 22.1183 24.7357 21.6983L18.9957 18.2783V11.4783C18.9757 10.6783 18.2957 9.99826 17.4757 9.99826C16.6557 9.99826 15.9757 10.6783 15.9757 11.4983ZM35.9757 12.9983V2.41826C35.9757 1.51826 34.8957 1.07826 34.2757 1.71826L30.7157 5.27826C28.8422 3.40469 26.5786 1.96731 24.0862 1.06851C21.5937 0.169707 18.9337 -0.168404 16.2957 0.0782627C7.9157 0.838263 1.0157 7.57826 0.095696 15.9583C-0.390621 20.657 0.989662 25.3586 3.93878 29.0488C6.88789 32.739 11.1694 35.122 15.8598 35.6837C20.5501 36.2453 25.2733 34.9407 29.0103 32.0512C32.7474 29.1617 35.1988 24.919 35.8357 20.2383C35.9757 19.0383 35.0357 17.9983 33.8357 17.9983C32.8357 17.9983 31.9957 18.7383 31.8757 19.7183C31.0157 26.6983 24.9957 32.0983 17.7757 31.9983C10.3557 31.8983 4.0957 25.6383 3.9757 18.1983C3.8557 10.3983 10.1957 3.99826 17.9757 3.99826C21.8357 3.99826 25.3357 5.57826 27.8757 8.09826L23.6957 12.2783C23.0557 12.9183 23.4957 13.9983 24.3957 13.9983H34.9757C35.5357 13.9983 35.9757 13.5583 35.9757 12.9983Z" fill="#626262" fillOpacity="0.1"/>
</svg>
