<svg width="16" height="17" viewBox="0 0 16 17" fill="none" xmlns="http://www.w3.org/2000/svg">
<path fill-rule="evenodd" clipRule="evenodd" d="M0 3.20996C0 1.96732 1.00736 0.959961 2.25 0.959961H7.75C8.99264 0.959961 10 1.96732 10 3.20996V5.20996C10 5.62417 9.66421 5.95996 9.25 5.95996C8.83579 5.95996 8.5 5.62417 8.5 5.20996V3.20996C8.5 2.79575 8.16421 2.45996 7.75 2.45996H2.25C1.83579 2.45996 1.5 2.79575 1.5 3.20996V14.71C1.5 15.1242 1.83579 15.46 2.25 15.46H7.75C8.16421 15.46 8.5 15.1242 8.5 14.71V12.71C8.5 12.2957 8.83579 11.96 9.25 11.96C9.66421 11.96 10 12.2957 10 12.71V14.71C10 15.9526 8.99264 16.96 7.75 16.96H2.25C1.00736 16.96 0 15.9526 0 14.71V3.20996Z" fill="currentColor"/>
<path fill-rule="evenodd" clipRule="evenodd" d="M3 8.95996C3 8.54575 3.33579 8.20996 3.75 8.20996H13.2955L12.2483 7.26743C11.9404 6.99034 11.9154 6.51612 12.1925 6.20824C12.4696 5.90035 12.9438 5.8754 13.2517 6.15249L15.7517 8.40249C15.9098 8.54472 16 8.74735 16 8.95996C16 9.17257 15.9098 9.3752 15.7517 9.51743L13.2517 11.7674C12.9438 12.0445 12.4696 12.0196 12.1925 11.7117C11.9154 11.4038 11.9404 10.9296 12.2483 10.6525L13.2955 9.70996H3.75C3.33579 9.70996 3 9.37417 3 8.95996Z" fill="currentColor"/>
</svg>
