<svg width="28" height="18" viewBox="0 0 28 18" fill="none" xmlns="http://www.w3.org/2000/svg">
<path fill-rule="evenodd" clip-rule="evenodd" d="M14 15.5334C8.9656 15.5334 4.72267 12.9612 2.04587 9.0001C4.72267 5.03903 8.9656 2.46676 14 2.46676C19.0344 2.46676 23.2773 5.03903 25.9541 9.0001C23.2773 12.9612 19.0344 15.5334 14 15.5334ZM14 0.600098C8.0416 0.600098 3.0912 3.78463 0.141869 8.50543C0.0491584 8.65377 0 8.82517 0 9.0001C0 9.17502 0.0491584 9.34643 0.141869 9.49476C3.0912 14.2156 8.0416 17.4001 14 17.4001C19.9584 17.4001 24.9088 14.2156 27.8581 9.49476C27.9508 9.34643 28 9.17502 28 9.0001C28 8.82517 27.9508 8.65377 27.8581 8.50543C24.9088 3.78463 19.9584 0.600098 14 0.600098ZM14 12.7334C14.9901 12.7334 15.9397 12.3401 16.6399 11.64C17.34 10.9398 17.7333 9.99024 17.7333 9.0001C17.7333 8.00996 17.34 7.06037 16.6399 6.36023C15.9397 5.6601 14.9901 5.26676 14 5.26676C13.0099 5.26676 12.0603 5.6601 11.3601 6.36023C10.66 7.06037 10.2667 8.00996 10.2667 9.0001C10.2667 9.99024 10.66 10.9398 11.3601 11.64C12.0603 12.3401 13.0099 12.7334 14 12.7334Z" fill="#1D2B43"/>
</svg>
