<svg width="24" height="24" viewBox="0 0 24 24" fill="none" xmlns="http://www.w3.org/2000/svg">
<path fill-rule="evenodd" clip-rule="evenodd" d="M18.4825 11.2853C18.8413 11.0782 19.3 11.2011 19.5071 11.5598L21.6455 15.2637C21.8526 15.6224 21.7297 16.0811 21.371 16.2882C21.0123 16.4953 20.5536 16.3724 20.3465 16.0137L18.208 12.3098C18.0009 11.9511 18.1238 11.4924 18.4825 11.2853Z" fill="#111112"/>
<path fill-rule="evenodd" clip-rule="evenodd" d="M14.324 13.2548C14.7319 13.1829 15.1209 13.4553 15.1928 13.8632L15.8597 17.6454C15.9317 18.0533 15.6593 18.4423 15.2514 18.5143C14.8435 18.5862 14.4545 18.3138 14.3825 17.9059L13.7156 14.1236C13.6437 13.7157 13.9161 13.3267 14.324 13.2548Z" fill="#111112"/>
<path fill-rule="evenodd" clip-rule="evenodd" d="M9.66701 13.253C10.0749 13.325 10.3473 13.714 10.2754 14.1219L9.60836 17.9047C9.53643 18.3127 9.14744 18.585 8.73952 18.5131C8.3316 18.4412 8.05922 18.0522 8.13115 17.6443L8.79817 13.8614C8.8701 13.4535 9.25909 13.1811 9.66701 13.253Z" fill="#111112"/>
<path fill-rule="evenodd" clip-rule="evenodd" d="M5.51311 11.2823C5.87183 11.4894 5.99474 11.9481 5.78763 12.3068L3.6389 16.0285C3.4318 16.3873 2.9731 16.5102 2.61438 16.3031C2.25566 16.0959 2.13276 15.6373 2.33986 15.2785L4.48859 11.5568C4.6957 11.1981 5.15439 11.0752 5.51311 11.2823Z" fill="#111112"/>
<path fill-rule="evenodd" clip-rule="evenodd" d="M2.52822 9.24866C2.85042 8.98835 3.32263 9.03853 3.58294 9.36074C5.07644 11.2094 7.77227 13.5 11.9996 13.5C16.2269 13.5 18.9227 11.2094 20.4162 9.36076C20.6765 9.03855 21.1487 8.98837 21.4709 9.24868C21.7932 9.50898 21.8433 9.9812 21.583 10.3034C19.9242 12.3567 16.841 15 11.9996 15C7.1582 15 4.07498 12.3567 2.41614 10.3034C2.15583 9.98117 2.20601 9.50896 2.52822 9.24866Z" fill="#111112"/>
</svg>
