<svg width="17" height="18" viewBox="0 0 17 18" fill="none" xmlns="http://www.w3.org/2000/svg">
<path fillRule="evenodd" clipRule="evenodd" d="M15.3 8.6197C15.3 12.3752 12.2555 15.4197 8.49995 15.4197C4.74441 15.4197 1.69995 12.3752 1.69995 8.6197C1.69995 4.86417 4.74441 1.8197 8.49995 1.8197C12.2555 1.8197 15.3 4.86417 15.3 8.6197ZM7.59839 6.01812C7.34943 6.26708 6.94579 6.26708 6.69683 6.01812C6.44787 5.76916 6.44787 5.36552 6.69683 5.11656C7.69267 4.12072 9.30724 4.12072 10.3031 5.11656C11.2989 6.11239 11.2989 7.72697 10.3031 8.7228C9.96946 9.05641 9.56487 9.27899 9.13745 9.38902V9.68218C9.13745 10.0343 8.85203 10.3197 8.49995 10.3197C8.14787 10.3197 7.86245 10.0343 7.86245 9.68218V9.25718C7.86245 8.64493 8.34691 8.26122 8.78159 8.16344C9.00844 8.11241 9.22381 7.99894 9.40151 7.82124C9.89943 7.32332 9.89943 6.51604 9.40151 6.01812C8.90359 5.5202 8.09631 5.5202 7.59839 6.01812ZM8.49995 12.8697C8.96939 12.8697 9.34995 12.4891 9.34995 12.0197C9.34995 11.5503 8.96939 11.1697 8.49995 11.1697C8.03051 11.1697 7.64995 11.5503 7.64995 12.0197C7.64995 12.4891 8.03051 12.8697 8.49995 12.8697Z" fill="currentColor"/>
</svg>
