<svg width="15" height="19" viewBox="0 0 15 19" fill="none" xmlns="http://www.w3.org/2000/svg">
<path fill-rule="evenodd" clip-rule="evenodd" d="M9.65658 0.395833C9.65658 0.263516 9.54934 0.15625 9.41699 0.15625H2.70866C1.25316 0.15625 0.0732422 1.33617 0.0732422 2.79167V16.2083C0.0732422 17.6638 1.25316 18.8438 2.70866 18.8438H12.292C13.7475 18.8438 14.9274 17.6638 14.9274 16.2083V6.76593C14.9274 6.63362 14.8202 6.52635 14.6878 6.52635H10.3753C9.97838 6.52635 9.65658 6.20455 9.65658 5.8076V0.395833ZM9.44718 10.6158C9.7572 10.3679 10.2094 10.4181 10.4575 10.7281C10.7054 11.038 10.6552 11.4904 10.3451 11.7384L7.95515 13.6503C7.83181 13.7513 7.67436 13.8119 7.50272 13.8125H7.50042H7.49429C7.32562 13.8111 7.17076 13.7515 7.04876 13.6529L4.65552 11.7384C4.34555 11.4904 4.2953 11.038 4.54327 10.7281C4.79124 10.4181 5.24355 10.3679 5.55352 10.6158L6.78167 11.5984V8.30208C6.78167 7.90514 7.10338 7.58333 7.50042 7.58333C7.89736 7.58333 8.21917 7.90514 8.21917 8.30208V11.5983L9.44718 10.6158Z" fill="#1D2B43"/>
</svg>
