<svg width="25" height="24" viewBox="0 0 25 24" fill="none" xmlns="http://www.w3.org/2000/svg">
<path d="M12.4562 10.356V13.807H17.2482C16.8022 16 14.9352 17.26 12.4562 17.26C9.56875 17.2202 7.24887 14.8682 7.24887 11.9805C7.24887 9.09275 9.56875 6.74072 12.4562 6.70098C13.6564 6.69954 14.8197 7.11605 15.7462 7.87898L18.3462 5.27898C15.3638 2.65705 11.0082 2.31981 7.65776 4.45142C4.30732 6.58303 2.76723 10.6712 3.87845 14.4836C4.98968 18.296 8.48515 20.9164 12.4562 20.914C16.9232 20.914 20.9852 17.665 20.9852 11.98C20.9783 11.4326 20.9112 10.8877 20.7852 10.355L12.4562 10.356Z" fill="#111112"/>
</svg>
