<svg width="21" height="21" viewBox="0 0 21 21" fill="none" xmlns="http://www.w3.org/2000/svg">
<path d="M12.3537 2.07881C12.425 1.74624 12.2635 1.40734 11.9604 1.25316C11.6572 1.09897 11.2882 1.16809 11.0614 1.42157L2.56144 10.9216C2.36421 11.142 2.31496 11.4578 2.4357 11.7278C2.55643 11.9978 2.82459 12.1717 3.12037 12.1717H9.69263L8.38702 18.2645C8.31576 18.5971 8.47721 18.936 8.78038 19.0902C9.08354 19.2444 9.45251 19.1752 9.67931 18.9218L18.1793 9.42176C18.3765 9.20133 18.4258 8.88556 18.3051 8.61554C18.1843 8.34551 17.9162 8.17166 17.6204 8.17166H11.0481L12.3537 2.07881Z" fill="#939393"/>
</svg>
