<svg width="17" height="16" viewBox="0 0 17 16" fill="none" xmlns="http://www.w3.org/2000/svg">
<path fill-rule="evenodd" clip-rule="evenodd" d="M14.5 8C14.5 11.3138 11.8138 14 8.5 14C5.18616 14 2.5 11.3138 2.5 8C2.5 4.68625 5.18616 2 8.5 2C11.8138 2 14.5 4.68625 14.5 8ZM7.20239 6.65747H9.32398V11.1769C9.32398 11.6144 8.96933 11.969 8.53186 11.969C8.09439 11.969 7.73975 11.6144 7.73975 11.1769V8.06226H7.20239C6.81447 8.06226 6.5 7.74778 6.5 7.35986C6.5 6.97194 6.81447 6.65747 7.20239 6.65747ZM7.50977 4.93247C7.50977 4.80778 7.53192 4.69149 7.57587 4.58359C7.62345 4.47236 7.68773 4.37629 7.76909 4.29539C7.85044 4.21449 7.94524 4.15048 8.05383 4.10326C8.10323 4.0824 8.15408 4.06615 8.20674 4.0545C8.27357 4.03987 8.34294 4.03247 8.41485 4.03247C8.53688 4.03247 8.65202 4.05604 8.76061 4.10326C8.79003 4.11599 8.81836 4.12998 8.8456 4.14515C8.91933 4.18623 8.9858 4.23634 9.04536 4.29539C9.12671 4.37629 9.191 4.47236 9.23858 4.58359C9.26328 4.63984 9.2818 4.69835 9.29342 4.75912C9.30432 4.815 9.30977 4.87279 9.30977 4.93247C9.30977 4.99965 9.30287 5.06492 9.28906 5.12822C9.27744 5.18239 9.26037 5.23512 9.23858 5.2864C9.191 5.3943 9.12671 5.48865 9.04536 5.56955C9.00359 5.61099 8.95856 5.64801 8.90989 5.6806C8.8634 5.71157 8.81364 5.73866 8.76061 5.76168C8.65202 5.80891 8.53688 5.83247 8.41485 5.83247C8.35129 5.83247 8.28991 5.82678 8.23071 5.81532C8.16933 5.80358 8.11049 5.7857 8.05383 5.76168C7.94524 5.71446 7.85044 5.65045 7.76909 5.56955C7.68773 5.48865 7.62345 5.3943 7.57587 5.2864C7.53192 5.17517 7.50977 5.05716 7.50977 4.93247Z" fill="#868FA0"/>
</svg>
