<svg width="39" height="41" viewBox="0 0 39 41" fill="none" xmlns="http://www.w3.org/2000/svg">
<path d="M10.0534 2.83934C9.59967 2.83934 9.15035 2.92871 8.73112 3.10236C8.3119 3.27601 7.93099 3.53053 7.61013 3.85139C7.28927 4.17225 7.03475 4.55316 6.8611 4.97239C6.68745 5.39161 6.59807 5.84093 6.59807 6.29469C6.59807 6.74846 6.68745 7.19778 6.8611 7.617C7.03475 8.03623 7.28927 8.41714 7.61013 8.738C7.93099 9.05886 8.3119 9.31338 8.73112 9.48703C9.15035 9.66068 9.59967 9.75005 10.0534 9.75005C10.9698 9.75005 11.8487 9.38601 12.4967 8.738C13.1447 8.09 13.5088 7.21111 13.5088 6.29469C13.5088 5.37828 13.1447 4.49939 12.4967 3.85139C11.8487 3.20338 10.9698 2.83934 10.0534 2.83934ZM4.2945 6.29469C4.2945 4.76733 4.90125 3.30253 5.98125 2.22252C7.06126 1.14251 8.52607 0.535767 10.0534 0.535767C11.5808 0.535767 13.0456 1.14251 14.1256 2.22252C15.2056 3.30253 15.8124 4.76733 15.8124 6.29469C15.8124 7.82206 15.2056 9.28686 14.1256 10.3669C13.0456 11.4469 11.5808 12.0536 10.0534 12.0536C8.52607 12.0536 7.06126 11.4469 5.98125 10.3669C4.90125 9.28686 4.2945 7.82206 4.2945 6.29469ZM0.0712891 17.401C0.0712891 15.7194 1.43347 14.3572 3.11507 14.3572H11.7151C11.4238 15.0927 11.2547 15.8708 11.2144 16.6608H3.11507C2.91876 16.6608 2.73048 16.7388 2.59166 16.8776C2.45285 17.0164 2.37486 17.2047 2.37486 17.401V18.0045C2.37486 18.2687 2.37793 19.8673 3.30704 21.3785C4.10561 22.6746 5.69354 24.0798 9.07057 24.3071C8.28965 24.8145 7.68127 25.5471 7.326 26.4079C4.2469 25.8382 2.40097 24.3009 1.34593 22.584C0.071289 20.5154 0.0712891 18.3777 0.0712891 18.0091V17.401ZM25.2831 14.3572C25.5688 15.0759 25.7438 15.8514 25.7838 16.6608H33.8846C34.2931 16.6608 34.6249 16.9925 34.6249 17.401V18.0045C34.6249 18.2149 34.6218 19.2715 34.1534 20.454C34.8399 20.8441 35.4818 21.3017 36.07 21.8177C36.6293 20.625 36.9222 19.3249 36.9284 18.0076V17.401C36.9284 16.5937 36.6077 15.8195 36.0369 15.2487C35.4661 14.6779 34.6919 14.3572 33.8846 14.3572H25.2831ZM24.2588 17.0447C24.2588 18.1996 23.9194 19.2746 23.3343 20.1776C22.1263 20.7823 21.0338 21.5942 20.1062 22.5763C18.9458 22.9134 17.7088 22.8769 16.5703 22.472C15.4317 22.0671 14.4494 21.3144 13.7624 20.3203C13.0753 19.3263 12.7184 18.1413 12.742 16.9332C12.7657 15.725 13.1688 14.555 13.8943 13.5886C14.6197 12.6222 15.6308 11.9085 16.7843 11.5485C17.9378 11.1885 19.1753 11.2005 20.3216 11.5828C21.4679 11.965 22.465 12.6982 23.1716 13.6784C23.8782 14.6587 24.2585 15.8363 24.2588 17.0447ZM11.5615 25.1072H18.2925C17.9054 25.8397 17.5991 26.6121 17.3788 27.4108H11.5615C11.3652 27.4108 11.1769 27.4888 11.0381 27.6276C10.8993 27.7664 10.8213 27.9547 10.8213 28.151V28.7545C10.8213 29.0187 10.8244 30.6173 11.7535 32.1285C12.5828 33.4753 14.2628 34.9388 17.9178 35.0771C18.2756 35.8987 18.7256 36.6696 19.2539 37.376C19.0082 37.3868 18.7579 37.3929 18.4999 37.3929C13.7299 37.3929 11.1284 35.5071 9.79236 33.3356C8.51772 31.2639 8.51772 29.1277 8.51772 28.7576V28.151C8.51772 26.4694 9.8799 25.1072 11.5615 25.1072ZM26.9463 2.83934C26.4925 2.83934 26.0432 2.92871 25.624 3.10236C25.2048 3.27601 24.8238 3.53053 24.503 3.85139C24.1821 4.17225 23.9276 4.55316 23.754 4.97239C23.5803 5.39161 23.4909 5.84093 23.4909 6.29469C23.4909 6.74846 23.5803 7.19778 23.754 7.617C23.9276 8.03623 24.1821 8.41714 24.503 8.738C24.8238 9.05886 25.2048 9.31338 25.624 9.48703C26.0432 9.66068 26.4925 9.75005 26.9463 9.75005C27.8627 9.75005 28.7416 9.38601 29.3896 8.738C30.0376 8.09 30.4016 7.21111 30.4016 6.29469C30.4016 5.37828 30.0376 4.49939 29.3896 3.85139C28.7416 3.20338 27.8627 2.83934 26.9463 2.83934ZM21.1874 6.29469C21.1874 4.76733 21.7941 3.30253 22.8741 2.22252C23.9541 1.14251 25.4189 0.535767 26.9463 0.535767C28.4737 0.535767 29.9385 1.14251 31.0185 2.22252C32.0985 3.30253 32.7052 4.76733 32.7052 6.29469C32.7052 7.82206 32.0985 9.28686 31.0185 10.3669C29.9385 11.4469 28.4737 12.0536 26.9463 12.0536C25.4189 12.0536 23.9541 11.4469 22.8741 10.3669C21.7941 9.28686 21.1874 7.82206 21.1874 6.29469ZM15.0445 17.0447C15.0445 17.4985 15.1339 17.9478 15.3075 18.367C15.4812 18.7862 15.7357 19.1671 16.0566 19.488C16.3774 19.8089 16.7583 20.0634 17.1776 20.237C17.5968 20.4107 18.0461 20.5001 18.4999 20.5001C18.9536 20.5001 19.4029 20.4107 19.8222 20.237C20.2414 20.0634 20.6223 19.8089 20.9432 19.488C21.264 19.1671 21.5185 18.7862 21.6922 18.367C21.8658 17.9478 21.9552 17.4985 21.9552 17.0447C21.9552 16.1283 21.5912 15.2494 20.9432 14.6014C20.2952 13.9534 19.4163 13.5893 18.4999 13.5893C17.5834 13.5893 16.7046 13.9534 16.0566 14.6014C15.4085 15.2494 15.0445 16.1283 15.0445 17.0447ZM38.4641 30.4822C38.4641 33.1296 37.4125 35.6686 35.5404 37.5406C33.6684 39.4127 31.1294 40.4643 28.482 40.4643C25.8346 40.4643 23.2956 39.4127 21.4236 37.5406C19.5515 35.6686 18.4999 33.1296 18.4999 30.4822C18.4999 27.8348 19.5515 25.2958 21.4236 23.4238C23.2956 21.5517 25.8346 20.5001 28.482 20.5001C31.1294 20.5001 33.6684 21.5517 35.5404 23.4238C37.4125 25.2958 38.4641 27.8348 38.4641 30.4822ZM29.2499 24.3393C29.2499 24.1357 29.169 23.9404 29.025 23.7964C28.881 23.6524 28.6857 23.5715 28.482 23.5715C28.2784 23.5715 28.083 23.6524 27.939 23.7964C27.795 23.9404 27.7141 24.1357 27.7141 24.3393V29.7143H22.3391C22.1355 29.7143 21.9402 29.7952 21.7962 29.9392C21.6522 30.0832 21.5713 30.2785 21.5713 30.4822C21.5713 30.6858 21.6522 30.8812 21.7962 31.0252C21.9402 31.1692 22.1355 31.2501 22.3391 31.2501H27.7141V36.6251C27.7141 36.8287 27.795 37.024 27.939 37.168C28.083 37.312 28.2784 37.3929 28.482 37.3929C28.6857 37.3929 28.881 37.312 29.025 37.168C29.169 37.024 29.2499 36.8287 29.2499 36.6251V31.2501H34.6249C34.8285 31.2501 35.0238 31.1692 35.1678 31.0252C35.3118 30.8812 35.3927 30.6858 35.3927 30.4822C35.3927 30.2785 35.3118 30.0832 35.1678 29.9392C35.0238 29.7952 34.8285 29.7143 34.6249 29.7143H29.2499V24.3393Z" fill="url(#paint0_linear_323_22211)"/>
<defs>
<linearGradient id="paint0_linear_323_22211" x1="19.2677" y1="0.535767" x2="19.2677" y2="40.4643" gradientUnits="userSpaceOnUse">
<stop stopColor="#E6E6E6"/>
<stop offset="1" stopColor="#F9F9F9"/>
</linearGradient>
</defs>
</svg>
