<svg width="172" height="18" viewBox="0 0 172 18" fill="none" xmlns="http://www.w3.org/2000/svg">
<path d="M15.3726 7.56152C15.3726 8.44596 15.221 9.28711 14.918 10.085C14.6149 10.8828 14.1572 11.5848 13.5449 12.1909C12.9388 12.797 12.1781 13.2795 11.2627 13.6382C10.3535 13.9907 9.28971 14.167 8.07129 14.167C7.23633 14.167 6.47559 14.0804 5.78906 13.9072C5.10254 13.734 4.48714 13.4959 3.94287 13.1929C3.40479 12.8898 2.93783 12.5311 2.54199 12.1167C2.14616 11.6961 1.81527 11.2415 1.54932 10.7529C1.28955 10.2643 1.09473 9.75098 0.964844 9.21289C0.841146 8.66862 0.779297 8.11816 0.779297 7.56152C0.779297 6.72656 0.921549 5.91634 1.20605 5.13086C1.49674 4.33919 1.93896 3.63411 2.53271 3.01562C3.13265 2.39714 3.8903 1.90234 4.80566 1.53125C5.72721 1.15397 6.81576 0.965332 8.07129 0.965332C9.2959 0.965332 10.3659 1.14779 11.2812 1.5127C12.1966 1.87142 12.9574 2.35384 13.5635 2.95996C14.1696 3.56608 14.6211 4.26807 14.918 5.06592C15.221 5.85758 15.3726 6.68945 15.3726 7.56152ZM4.73145 7.56152C4.73145 8.04395 4.80566 8.48926 4.9541 8.89746C5.10872 9.29948 5.32829 9.64893 5.61279 9.9458C5.8973 10.2365 6.24674 10.4622 6.66113 10.623C7.07552 10.7839 7.54557 10.8643 8.07129 10.8643C8.60938 10.8643 9.08561 10.7839 9.5 10.623C9.92057 10.4561 10.27 10.2272 10.5483 9.93652C10.8328 9.63965 11.0493 9.2902 11.1978 8.88818C11.3462 8.48617 11.4204 8.04395 11.4204 7.56152C11.4204 7.08529 11.3462 6.64616 11.1978 6.24414C11.0493 5.84212 10.8328 5.49577 10.5483 5.20508C10.27 4.9082 9.92057 4.67936 9.5 4.51855C9.08561 4.35156 8.60938 4.26807 8.07129 4.26807C7.54557 4.26807 7.07552 4.34847 6.66113 4.50928C6.24674 4.67008 5.8973 4.89583 5.61279 5.18652C5.32829 5.47721 5.10872 5.82666 4.9541 6.23486C4.80566 6.63688 4.73145 7.0791 4.73145 7.56152ZM26.7277 14L23.7775 6.56885L20.7623 14H16.7081L22.5065 0.965332H25.0763L30.754 14H26.7277ZM32.8967 1.1416H36.7746V5.86377H39.0383C39.898 5.86377 40.6278 5.9751 41.2278 6.19775C41.8277 6.41423 42.3163 6.70801 42.6936 7.0791C43.0771 7.4502 43.3554 7.88005 43.5286 8.36865C43.7017 8.85726 43.7883 9.3737 43.7883 9.91797C43.7883 10.4746 43.6863 11.0003 43.4822 11.4951C43.2781 11.9899 42.975 12.4229 42.573 12.7939C42.1772 13.165 41.6885 13.4588 41.1072 13.6753C40.5258 13.8918 39.8547 14 39.094 14H32.8967V1.1416ZM36.7746 8.32227V11.5508H37.6838C38.092 11.5508 38.4353 11.5106 38.7136 11.4302C38.9981 11.3498 39.227 11.2384 39.4001 11.0962C39.5733 10.9539 39.697 10.7839 39.7712 10.5859C39.8516 10.3818 39.8918 10.1592 39.8918 9.91797C39.8918 9.64583 39.8578 9.41081 39.7898 9.21289C39.7279 9.01497 39.6135 8.85107 39.4465 8.72119C39.2857 8.58512 39.0631 8.48617 38.7786 8.42432C38.494 8.35628 38.1291 8.32227 37.6838 8.32227H36.7746ZM46.5433 14V1.1416H56.3124V3.98975H50.4212V14H46.5433ZM62.4629 11.3931L61.396 14H57.4253L63.1123 1.1416H67.3984L73.0669 14H69.0962L68.0478 11.3931H62.4629ZM67.1572 9.15723L65.2739 4.46289L63.3721 9.15723H67.1572Z" fill="#1D2B43"/>
<path d="M81.1745 1.1416H84.6906L88.6428 5.96582L92.6135 1.1416H96.1296V14H92.2517V6.55029L88.7541 10.8643H88.448L84.9411 6.55029V14H81.1745V1.1416ZM97.994 1.1416H102.02L105.342 8.37793L107.986 1.1416H112.031L106.557 14.0928C106.328 14.6309 106.084 15.0854 105.824 15.4565C105.564 15.8338 105.28 16.1369 104.971 16.3657C104.661 16.6007 104.324 16.7677 103.959 16.8667C103.601 16.9718 103.202 17.0244 102.763 17.0244C102.459 17.0244 102.163 16.9997 101.872 16.9502C101.581 16.9069 101.306 16.8481 101.046 16.7739C100.786 16.6997 100.548 16.6193 100.332 16.5327C100.115 16.4523 99.9299 16.375 99.7752 16.3008V13.5825C100.146 13.7743 100.527 13.9227 100.916 14.0278C101.306 14.133 101.686 14.1855 102.057 14.1855C102.453 14.1855 102.772 14.0928 103.013 13.9072C103.254 13.7217 103.424 13.3908 103.523 12.9146L97.994 1.1416ZM112.559 11.1519H114.461L119.267 0.965332H121.827L126.503 11.1519H128.423V16.375H125.195V14H115.788V16.375H112.559V11.1519ZM118.181 11.1519H122.82L120.538 5.62256L118.181 11.1519ZM137.125 1.1416C137.725 1.1416 138.257 1.20345 138.721 1.32715C139.185 1.44466 139.59 1.60547 139.936 1.80957C140.289 2.01367 140.586 2.25179 140.827 2.52393C141.068 2.78988 141.263 3.07438 141.411 3.37744C141.56 3.67432 141.668 3.98047 141.736 4.2959C141.804 4.60514 141.838 4.90202 141.838 5.18652C141.838 5.47103 141.804 5.7679 141.736 6.07715C141.668 6.38021 141.56 6.68018 141.411 6.97705C141.263 7.27393 141.068 7.55534 140.827 7.82129C140.586 8.08724 140.289 8.32227 139.936 8.52637C139.59 8.72428 139.185 8.882 138.721 8.99951C138.257 9.11702 137.725 9.17578 137.125 9.17578H134.583V14H130.705V1.1416H137.125ZM134.583 3.60938V6.70801H135.418C135.876 6.70801 136.259 6.68945 136.568 6.65234C136.884 6.60905 137.137 6.53174 137.329 6.42041C137.527 6.30908 137.669 6.15755 137.756 5.96582C137.843 5.7679 137.886 5.51432 137.886 5.20508C137.886 4.89583 137.843 4.63916 137.756 4.43506C137.669 4.23096 137.527 4.06706 137.329 3.94336C137.137 3.81966 136.884 3.73307 136.568 3.68359C136.253 3.63411 135.863 3.60938 135.399 3.60938H134.583ZM147.886 11.3931L146.82 14H142.849L148.536 1.1416H152.822L158.49 14H154.52L153.471 11.3931H147.886ZM152.581 9.15723L150.697 4.46289L148.796 9.15723H152.581ZM171.562 1.1416V14H167.684V8.98096H167.248C166.957 8.98096 166.691 9.0026 166.45 9.0459C166.215 9.08919 165.983 9.20052 165.754 9.37988C165.532 9.55924 165.303 9.83447 165.068 10.2056C164.833 10.5705 164.57 11.0745 164.279 11.7178L163.277 14H159.112L160.41 11.2075C160.658 10.6571 160.874 10.221 161.06 9.89941C161.245 9.57161 161.416 9.31185 161.57 9.12012C161.731 8.92839 161.886 8.77995 162.034 8.6748C162.189 8.56348 162.356 8.45215 162.535 8.34082C162.448 8.29753 162.334 8.23877 162.192 8.16455C162.056 8.09033 161.91 7.99447 161.756 7.87695C161.601 7.75944 161.443 7.62028 161.283 7.45947C161.128 7.29248 160.986 7.09766 160.856 6.875C160.732 6.65234 160.63 6.39876 160.55 6.11426C160.469 5.82357 160.429 5.49577 160.429 5.13086C160.429 4.88965 160.46 4.6237 160.522 4.33301C160.59 4.04232 160.695 3.74854 160.837 3.45166C160.979 3.15479 161.165 2.86719 161.394 2.58887C161.629 2.31055 161.913 2.06624 162.247 1.85596C162.588 1.63949 162.98 1.46631 163.426 1.33643C163.877 1.20654 164.39 1.1416 164.966 1.1416H171.562ZM166.867 3.60938C166.435 3.60938 166.06 3.63721 165.745 3.69287C165.436 3.74235 165.179 3.83203 164.975 3.96191C164.771 4.08561 164.619 4.24951 164.52 4.45361C164.428 4.65771 164.381 4.9082 164.381 5.20508C164.381 5.50195 164.421 5.74935 164.502 5.94727C164.588 6.139 164.728 6.29362 164.919 6.41113C165.117 6.52246 165.371 6.59977 165.68 6.64307C165.995 6.68636 166.385 6.70801 166.849 6.70801H167.684V3.60938H166.867Z" fill="#FE2C89"/>
</svg>
