<svg width="45" height="19" viewBox="0 0 45 19" fill="none" xmlns="http://www.w3.org/2000/svg">
<path d="M20.2517 9.18945C20.2517 10.3997 20.0444 11.5508 19.6296 12.6426C19.2149 13.7344 18.5886 14.695 17.7507 15.5244C16.9213 16.3538 15.8803 17.014 14.6277 17.5049C13.3836 17.9873 11.9278 18.2285 10.2605 18.2285C9.11793 18.2285 8.07691 18.11 7.13746 17.873C6.19801 17.6361 5.35589 17.3102 4.61109 16.8955C3.87477 16.4808 3.23577 15.9899 2.6941 15.4229C2.15243 14.8473 1.69964 14.2253 1.3357 13.5566C0.980234 12.888 0.713633 12.1855 0.535898 11.4492C0.366627 10.7044 0.281992 9.95117 0.281992 9.18945C0.281992 8.04688 0.476653 6.93815 0.865976 5.86328C1.26376 4.77995 1.86891 3.8151 2.68141 2.96875C3.50237 2.1224 4.53915 1.44531 5.79176 0.9375C7.05283 0.421224 8.54241 0.163086 10.2605 0.163086C11.9363 0.163086 13.4005 0.41276 14.6531 0.912109C15.9057 1.40299 16.9467 2.06315 17.7761 2.89258C18.6056 3.72201 19.2234 4.68262 19.6296 5.77441C20.0444 6.85775 20.2517 7.99609 20.2517 9.18945ZM5.6902 9.18945C5.6902 9.84961 5.79176 10.459 5.99488 11.0176C6.20647 11.5677 6.50693 12.0459 6.89625 12.4521C7.28557 12.8499 7.76376 13.1589 8.33082 13.3789C8.89788 13.599 9.54111 13.709 10.2605 13.709C10.9968 13.709 11.6485 13.599 12.2156 13.3789C12.7911 13.1504 13.2693 12.8372 13.6502 12.4395C14.0395 12.0332 14.3357 11.555 14.5388 11.0049C14.742 10.4548 14.8435 9.84961 14.8435 9.18945C14.8435 8.53776 14.742 7.93685 14.5388 7.38672C14.3357 6.83659 14.0395 6.36263 13.6502 5.96484C13.2693 5.55859 12.7911 5.24544 12.2156 5.02539C11.6485 4.79688 10.9968 4.68262 10.2605 4.68262C9.54111 4.68262 8.89788 4.79264 8.33082 5.0127C7.76376 5.23275 7.28557 5.54167 6.89625 5.93945C6.50693 6.33724 6.20647 6.81543 5.99488 7.37402C5.79176 7.92415 5.6902 8.5293 5.6902 9.18945Z" fill="#1D2B43"/>
<path d="M24.0852 0.404297H28.8967L34.3049 7.00586L39.7385 0.404297H44.55V18H39.2434V7.80566L34.4573 13.709H34.0383L29.2395 7.80566V18H24.0852V0.404297Z" fill="#FE2C89"/>
</svg>
