<svg width="14" height="15" viewBox="0 0 14 15" fill="none" xmlns="http://www.w3.org/2000/svg">
<path d="M12.7273 14.6481H1.27273C0.935299 14.6477 0.611829 14.5166 0.373232 14.2834C0.134634 14.0503 0.000392978 13.7342 0 13.4044V5.11328H14V13.4044C13.9996 13.7342 13.8654 14.0503 13.6268 14.2834C13.3882 14.5166 13.0647 14.6477 12.7273 14.6481ZM4.24242 9.4365C4.1299 9.4365 4.02198 9.48018 3.94242 9.55793C3.86286 9.63567 3.81818 9.74111 3.81818 9.85106V9.91034C3.81818 10.0203 3.86286 10.1257 3.94242 10.2035C4.02198 10.2812 4.1299 10.3249 4.24242 10.3249H6.5454V12.5753C6.5454 12.6853 6.59013 12.7907 6.66969 12.8685C6.74926 12.9462 6.85713 12.9899 6.96965 12.9899H7.03034C7.14286 12.9899 7.25073 12.9462 7.33029 12.8685C7.40985 12.7907 7.45458 12.6853 7.45458 12.5753V10.3249H9.75757C9.87008 10.3249 9.97801 10.2812 10.0576 10.2035C10.1371 10.1257 10.1818 10.0203 10.1818 9.91034V9.85106C10.1818 9.74111 10.1371 9.63567 10.0576 9.55793C9.97801 9.48018 9.87008 9.4365 9.75757 9.4365H7.45458V7.18607C7.45458 7.07612 7.40985 6.97069 7.33029 6.89294C7.25073 6.8152 7.14286 6.77151 7.03034 6.77151H6.96965C6.85713 6.77151 6.74926 6.8152 6.66969 6.89294C6.59013 6.97069 6.5454 7.07612 6.5454 7.18607V9.4367L4.24242 9.4365Z" fill="currentColor"/>
<path d="M11.0303 4.4914H0V3.66228C0 3.33244 0.134083 3.0161 0.372765 2.78286C0.611448 2.54963 0.935178 2.41861 1.27273 2.41861H1.90909V1.79677C1.90909 1.5219 2.02081 1.25829 2.21971 1.06393C2.41861 0.86957 2.6884 0.760376 2.96969 0.760376H3.39394C3.67523 0.760376 3.94502 0.86957 4.14392 1.06393C4.34282 1.25829 4.45454 1.5219 4.45454 1.79677V2.41861H5.72727V1.79677C5.72727 1.5219 5.83899 1.25829 6.03789 1.06393C6.23679 0.86957 6.50658 0.760376 6.78787 0.760376H7.21212C7.49341 0.760376 7.7632 0.86957 7.9621 1.06393C8.161 1.25829 8.27272 1.5219 8.27272 1.79677V2.41861H9.54545V1.79677C9.54545 1.5219 9.65717 1.25829 9.85607 1.06393C10.055 0.86957 10.3248 0.760376 10.6061 0.760376H11.0303C11.3116 0.760376 11.5814 0.86957 11.7803 1.06393C11.9792 1.25829 12.0909 1.5219 12.0909 1.79677V2.41861H12.7273C13.0648 2.41861 13.3885 2.54963 13.6272 2.78286C13.8659 3.0161 14 3.33244 14 3.66228V4.4914H11.0303Z" fill="currentColor"/>
</svg>
