<svg width="45" height="43" viewBox="0 0 45 43" fill="none" xmlns="http://www.w3.org/2000/svg">
<path d="M30 28C30 25.9281 24.1237 24.25 16.875 24.25M30 28C30 30.0719 24.1237 31.75 16.875 31.75C9.62625 31.75 3.75 30.0719 3.75 28M30 28V37.2569C30 39.3925 24.1237 41.125 16.875 41.125C9.62625 41.125 3.75 39.3944 3.75 37.2569V28M30 28C37.17 28 43.125 26.1494 43.125 24.25V5.5M16.875 24.25C9.62625 24.25 3.75 25.9281 3.75 28M16.875 24.25C8.59125 24.25 1.875 22.3994 1.875 20.5V11.125M16.875 7.375C8.59125 7.375 1.875 9.05312 1.875 11.125M1.875 11.125C1.875 13.1969 8.59125 14.875 16.875 14.875C16.875 16.7744 22.9744 18.625 30.1444 18.625C37.3125 18.625 43.125 16.7744 43.125 14.875M43.125 5.5C43.125 3.42812 37.3125 1.75 30.1444 1.75C22.9744 1.75 17.1638 3.42812 17.1638 5.5M43.125 5.5C43.125 7.57188 37.3125 9.25 30.1444 9.25C22.9762 9.25 17.1638 7.57188 17.1638 5.5M17.1638 5.5V24.5613" stroke="url(#paint0_linear_323_10670)" strokeWidth="2"/>
<defs>
<linearGradient id="paint0_linear_323_10670" x1="22.5" y1="1.75" x2="22.5" y2="41.125" gradientUnits="userSpaceOnUse">
<stop stopColor="#E6E6E6"/>
<stop offset="1" stopColor="#F9F9F9"/>
</linearGradient>
</defs>
</svg>
