<svg width="25" height="23" viewBox="0 0 25 23" fill="none" xmlns="http://www.w3.org/2000/svg">
<path d="M19.25 9.64006C19.2495 7.63871 18.3275 5.71945 16.6867 4.30428C15.0458 2.88912 12.8205 2.09391 10.5 2.09351V3.60282C11.8843 3.60309 13.2375 3.95723 14.3886 4.6205C15.5396 5.28376 16.437 6.2264 16.9671 7.3293C17.319 8.0619 17.5001 8.8471 17.5 9.64006H19.25ZM1.75 8.13075V4.35747C1.75 4.15732 1.84219 3.96538 2.00628 3.82385C2.17038 3.68232 2.39294 3.60282 2.625 3.60282H7C7.23206 3.60282 7.45462 3.68232 7.61872 3.82385C7.78281 3.96538 7.875 4.15732 7.875 4.35747V7.37609C7.875 7.57624 7.78281 7.76819 7.61872 7.90971C7.45462 8.05124 7.23206 8.13075 7 8.13075H5.25C5.25 9.73192 5.9875 11.2675 7.30025 12.3997C8.61301 13.5319 10.3935 14.168 12.25 14.168V12.6587C12.25 12.4585 12.3422 12.2666 12.5063 12.1251C12.6704 11.9835 12.8929 11.904 13.125 11.904H16.625C16.8571 11.904 17.0796 11.9835 17.2437 12.1251C17.4078 12.2666 17.5 12.4585 17.5 12.6587V16.432C17.5 16.6321 17.4078 16.8241 17.2437 16.9656C17.0796 17.1071 16.8571 17.1866 16.625 17.1866H12.25C6.45138 17.1866 1.75 13.1318 1.75 8.13075Z" fill="white"/>
<path d="M15.3501 7.9082C15.6143 8.45764 15.7501 9.04664 15.75 9.64145H14.175C14.1751 9.22506 14.0801 8.81272 13.8955 8.42801C13.7108 8.04329 13.4402 7.69373 13.0989 7.3993C12.7576 7.10486 12.3524 6.87132 11.9065 6.71202C11.4606 6.55272 10.9826 6.47078 10.5 6.47088V5.11206C11.5383 5.11211 12.5533 5.37778 13.4166 5.87549C14.2799 6.3732 14.9528 7.08059 15.3501 7.9082Z" fill="#FE2C89"/>
</svg>
