<svg width="38" height="38" viewBox="0 0 38 38" fill="none" xmlns="http://www.w3.org/2000/svg">
<path fillRule="evenodd" clipRule="evenodd" d="M1.1512 11.639C1.84933 12.2873 2.94079 12.2469 3.58905 11.5488L8.07498 6.71775L8.07498 26.475C8.07498 27.4277 8.84729 28.2 9.79998 28.2C10.7527 28.2 11.525 27.4277 11.525 26.475V6.71775L16.0109 11.5488C16.6592 12.2469 17.7506 12.2873 18.4488 11.639C19.1469 10.9908 19.1873 9.89932 18.5391 9.2012L11.0641 1.1512C10.7377 0.799699 10.2797 0.599976 9.79998 0.599976C9.32031 0.599976 8.8623 0.799699 8.53591 1.1512L1.06091 9.2012C0.412655 9.89932 0.453079 10.9908 1.1512 11.639ZM19.5512 26.3609C18.8531 27.0092 18.8127 28.1006 19.4609 28.7988L26.9359 36.8488C27.2623 37.2003 27.7203 37.4 28.2 37.4C28.6796 37.4 29.1377 37.2003 29.464 36.8488L36.939 28.7988C37.5873 28.1006 37.5469 27.0092 36.8488 26.3609C36.1506 25.7127 35.0592 25.7531 34.4109 26.4512L29.925 31.2822V11.525C29.925 10.5723 29.1527 9.79998 28.2 9.79998C27.2473 9.79998 26.475 10.5723 26.475 11.525V31.2822L21.989 26.4512C21.3408 25.7531 20.2493 25.7126 19.5512 26.3609Z" fill="#F0F0F0"/>
</svg>
