<svg width="13" height="13" viewBox="0 0 13 13" fill="none" xmlns="http://www.w3.org/2000/svg">
<path d="M12.7043 11.2786L9.23447 7.90759C9.06924 7.74621 8.88565 7.65655 8.68371 7.63862L8.48176 7.44138C9.10596 6.59862 9.45477 5.63034 9.45477 4.62621C9.45477 2.08 7.32515 0 4.71821 0C2.12962 0.017931 0 2.09793 0 4.62621C0 7.17241 2.12962 9.25241 4.73657 9.25241C5.69122 9.25241 6.55409 9.00138 7.3068 8.49931L7.50874 8.69655C7.5271 8.92966 7.6189 9.14483 7.78412 9.30621L11.2723 12.7131C11.4559 12.9103 11.7129 13 11.9883 13C12.2453 13 12.5207 12.8924 12.7043 12.7131C12.8879 12.5338 12.998 12.2648 12.998 11.9959C13.0164 11.7269 12.9062 11.4579 12.7043 11.2786ZM4.68149 7.53103C3.04756 7.53103 1.70737 6.22207 1.70737 4.62621C1.70737 3.03034 3.04756 1.72138 4.68149 1.72138C6.35214 1.72138 7.65561 3.01241 7.65561 4.62621C7.65561 6.24 6.31542 7.53103 4.68149 7.53103Z" fill="currentColor"/>
</svg>
