<svg width="18" height="18" viewBox="0 0 18 18" fill="none" xmlns="http://www.w3.org/2000/svg">
<path d="M8.15597 0.440436C7.90758 0.440436 7.68149 0.557353 7.5353 0.719763C7.3891 0.882172 7.30798 1.08088 7.26924 1.28556C7.26924 1.28566 7.26924 1.28576 7.26924 1.28586L7.02072 2.59977C6.71314 2.70181 6.41419 2.8262 6.12492 2.97231L5.0184 2.21783C4.84639 2.10057 4.64849 2.01722 4.43025 2.00572C4.21179 1.99424 3.96947 2.07198 3.79406 2.2474L2.48753 3.55393C2.3119 3.72952 2.23443 3.97199 2.24577 4.1902C2.25703 4.40841 2.34027 4.6068 2.45757 4.77897L3.20878 5.88076C3.06307 6.1715 2.93931 6.47195 2.83803 6.78099L1.52537 7.02942C1.32069 7.06815 1.1216 7.1493 0.959184 7.29548C0.796768 7.44168 0.679932 7.66818 0.679932 7.91655V9.76428C0.679932 10.0127 0.796768 10.2388 0.959184 10.3849C1.1216 10.5311 1.32069 10.6126 1.52537 10.6513L2.84013 10.9004C2.94218 11.2077 3.06632 11.5063 3.21235 11.7953L2.45757 12.9018C2.34018 13.074 2.25711 13.2723 2.24577 13.4905C2.2345 13.7088 2.31182 13.9512 2.48753 14.1268L3.79406 15.4333C3.96968 15.609 4.21202 15.6861 4.43025 15.6747C4.64847 15.6633 4.84656 15.58 5.01871 15.4627L6.1205 14.7117C6.41131 14.8574 6.71193 14.981 7.02103 15.0822L7.26947 16.3949C7.30821 16.5996 7.3894 16.7987 7.53561 16.9611C7.6818 17.1235 7.90789 17.2403 8.15628 17.2403H10.0043C10.2527 17.2403 10.4788 17.1235 10.625 16.9611C10.7711 16.7987 10.8524 16.5998 10.8911 16.3952V16.3947L11.1399 15.0809C11.4475 14.9789 11.7464 14.8545 12.0357 14.7084L13.1419 15.4625C13.314 15.5799 13.5121 15.6631 13.7303 15.6746C13.9485 15.686 14.1912 15.6088 14.3668 15.4332L15.6734 14.1267C15.849 13.951 15.9263 13.7083 15.9148 13.4901C15.9034 13.2719 15.8201 13.0738 15.7027 12.9016L14.9515 11.7999C15.0973 11.5091 15.2209 11.2087 15.3222 10.8996L16.6349 10.6512C16.8396 10.6124 17.0387 10.531 17.2011 10.3848C17.3635 10.2386 17.4803 10.0125 17.4803 9.76414V7.91634C17.4803 7.66796 17.3635 7.44155 17.2011 7.29536C17.0388 7.14924 16.8398 7.06806 16.6352 7.02931L15.3211 6.78056C15.2191 6.47314 15.0946 6.17441 14.9485 5.88529L15.703 4.77885C15.8203 4.60676 15.9036 4.40863 15.9151 4.19039C15.9267 3.97215 15.8491 3.72945 15.6734 3.55381L14.3671 2.24728C14.1915 2.07173 13.9489 1.99413 13.7306 2.0056C13.5124 2.01713 13.3145 2.1005 13.1425 2.21771L12.0407 2.96893C11.7499 2.82325 11.4493 2.69964 11.1402 2.5984L10.8913 1.28543C10.8526 1.08077 10.7715 0.882048 10.6253 0.719635C10.4791 0.55722 10.253 0.440308 10.0046 0.440308L8.15597 0.440436ZM9.08002 5.6581C10.8412 5.6581 12.2619 7.07899 12.2618 8.84021C12.2618 10.6014 10.8412 12.0223 9.08002 12.0223C7.31879 12.0223 5.89789 10.6014 5.89783 8.84021C5.89783 7.0789 7.31872 5.65804 9.08002 5.6581Z" fill="currentColor"/>
</svg>
