<svg width="43" height="25" viewBox="0 0 43 25" fill="none" xmlns="http://www.w3.org/2000/svg">
<path fillRule="evenodd" clipRule="evenodd" d="M27.9159 1.30194C28.1744 0.365181 29.1661 -0.190735 30.1308 0.0602697L41.6596 3.05971C42.1229 3.18024 42.5179 3.47454 42.7577 3.87787C42.9975 4.28119 43.0625 4.7605 42.9384 5.21035L39.8493 16.4044C39.5907 17.3412 38.5991 17.8971 37.6343 17.6461C36.6695 17.3951 36.097 16.4322 36.3555 15.4954L38.3074 8.42226C32.8671 11.6771 28.3429 15.8456 24.8209 20.6035C24.5112 21.0219 24.0279 21.2871 23.4989 21.3289C22.97 21.3706 22.4489 21.1847 22.0736 20.8203L14.4679 13.4354L3.08729 24.4857C2.38103 25.1714 1.23596 25.1714 0.529695 24.4857C-0.176565 23.7999 -0.176565 22.6881 0.529695 22.0023L13.1891 9.71042C13.8954 9.02466 15.0405 9.02466 15.7467 9.71042L23.1582 16.9067C26.7774 12.4283 31.2588 8.49509 36.5297 5.36093L29.1947 3.45258C28.2299 3.20158 27.6574 2.2387 27.9159 1.30194Z" fill="#626262" fillOpacity="0.1"/>
</svg>
