<svg width="61" height="56" viewBox="0 0 61 56" fill="none" xmlns="http://www.w3.org/2000/svg">
<g clip-path="url(#clip0_323_10641)">
<mask id="mask0_323_10641" style="mask-type:luminance" maskUnits="userSpaceOnUse" x="1" y="1" width="62" height="57">
<path d="M56.6866 1.73645H6.9465C3.83715 1.73645 1.31653 3.8814 1.31653 6.52734V52.8916C1.31653 55.5375 3.83715 57.6825 6.9465 57.6825H56.6866C59.7959 57.6825 62.3165 55.5375 62.3165 52.8916V6.52734C62.3165 3.8814 59.7959 1.73645 56.6866 1.73645Z" fill="white"/>
</mask>
<g mask="url(#mask0_323_10641)">
<path d="M58.6585 55.9461H49.2927C47.9997 55.9461 46.9513 55.0541 46.9513 53.9536V14.1045C46.9513 13.0041 47.9997 12.1121 49.2927 12.1121H58.6585C59.9515 12.1121 60.9999 13.0041 60.9999 14.1045V53.9536C60.9999 55.0541 59.9515 55.9461 58.6585 55.9461Z" fill="white"/>
<path d="M39.927 55.9461H30.5616C29.2684 55.9461 28.2201 55.0539 28.2201 53.9536V22.0744C28.2201 20.974 29.2684 20.0819 30.5616 20.0819H39.927C41.2204 20.0819 42.2685 20.974 42.2685 22.0744V53.9536C42.2685 55.0539 41.2204 55.9461 39.927 55.9461Z" fill="url(#paint0_linear_323_10641)"/>
<path d="M21.1958 55.946H11.8302C10.5371 55.946 9.48877 55.0541 9.48877 53.9536V30.0441C9.48877 28.9438 10.5371 28.0516 11.8302 28.0516H21.1958C22.4889 28.0516 23.5372 28.9438 23.5372 30.0441V53.9536C23.5372 55.0541 22.4889 55.946 21.1958 55.946Z" fill="url(#paint1_linear_323_10641)"/>
</g>
<g clipPath="url(#clip1_323_10641)">
<g clipPath="url(#clip2_323_10641)">
<mask id="path-5-inside-1_323_10641" fill="white">
<path d="M16.4122 13.2217C16.2098 13.2217 16.0457 13.3305 16.0457 13.4647V14.6798H14.9462C14.7438 14.6798 14.5797 14.7886 14.5797 14.9228V21.2414C14.5797 21.3756 14.7438 21.4844 14.9462 21.4844H16.0457V22.4565C16.0457 22.5907 16.2098 22.6995 16.4122 22.6995C16.6146 22.6995 16.7787 22.5907 16.7787 22.4565V21.4844H17.8782C18.0806 21.4844 18.2447 21.3756 18.2447 21.2414V14.9228C18.2447 14.7886 18.0806 14.6798 17.8782 14.6798H16.7787V13.4647C16.7787 13.3305 16.6146 13.2217 16.4122 13.2217ZM17.5117 15.1659V20.9984H15.3127V15.1659H17.5117Z"/>
</mask>
<path d="M16.4122 13.2217C16.2098 13.2217 16.0457 13.3305 16.0457 13.4647V14.6798H14.9462C14.7438 14.6798 14.5797 14.7886 14.5797 14.9228V21.2414C14.5797 21.3756 14.7438 21.4844 14.9462 21.4844H16.0457V22.4565C16.0457 22.5907 16.2098 22.6995 16.4122 22.6995C16.6146 22.6995 16.7787 22.5907 16.7787 22.4565V21.4844H17.8782C18.0806 21.4844 18.2447 21.3756 18.2447 21.2414V14.9228C18.2447 14.7886 18.0806 14.6798 17.8782 14.6798H16.7787V13.4647C16.7787 13.3305 16.6146 13.2217 16.4122 13.2217ZM17.5117 15.1659V20.9984H15.3127V15.1659H17.5117Z" fill="url(#paint2_linear_323_10641)"/>
<path d="M16.0457 14.6798V15.6798H17.0457V14.6798H16.0457ZM16.0457 21.4844H17.0457V20.4844H16.0457V21.4844ZM16.7787 21.4844V20.4844H15.7787V21.4844H16.7787ZM16.7787 14.6798H15.7787V15.6798H16.7787V14.6798ZM17.5117 15.1659H18.5117V14.1659H17.5117V15.1659ZM17.5117 20.9984V21.9984H18.5117V20.9984H17.5117ZM15.3127 20.9984H14.3127V21.9984H15.3127V20.9984ZM15.3127 15.1659V14.1659H14.3127V15.1659H15.3127ZM16.4122 12.2217C16.1422 12.2217 15.8523 12.2924 15.6004 12.4594C15.3561 12.6214 15.0457 12.9566 15.0457 13.4647H17.0457C17.0457 13.8386 16.8174 14.0522 16.7057 14.1263C16.5865 14.2053 16.4799 14.2217 16.4122 14.2217V12.2217ZM15.0457 13.4647V14.6798H17.0457V13.4647H15.0457ZM16.0457 13.6798H14.9462V15.6798H16.0457V13.6798ZM14.9462 13.6798C14.6762 13.6798 14.3863 13.7506 14.1344 13.9176C13.8901 14.0796 13.5797 14.4148 13.5797 14.9228H15.5797C15.5797 15.2967 15.3514 15.5104 15.2397 15.5844C15.1205 15.6635 15.0139 15.6798 14.9462 15.6798V13.6798ZM13.5797 14.9228V21.2414H15.5797V14.9228H13.5797ZM13.5797 21.2414C13.5797 21.7495 13.8901 22.0847 14.1344 22.2467C14.3863 22.4137 14.6762 22.4844 14.9462 22.4844V20.4844C15.0139 20.4844 15.1205 20.5008 15.2397 20.5798C15.3514 20.6539 15.5797 20.8676 15.5797 21.2414H13.5797ZM14.9462 22.4844H16.0457V20.4844H14.9462V22.4844ZM15.0457 21.4844V22.4565H17.0457V21.4844H15.0457ZM15.0457 22.4565C15.0457 22.9646 15.3561 23.2998 15.6004 23.4618C15.8523 23.6288 16.1422 23.6995 16.4122 23.6995V21.6995C16.4799 21.6995 16.5865 21.7159 16.7057 21.7949C16.8174 21.869 17.0457 22.0827 17.0457 22.4565H15.0457ZM16.4122 23.6995C16.6823 23.6995 16.9722 23.6288 17.224 23.4618C17.4683 23.2998 17.7787 22.9646 17.7787 22.4565H15.7787C15.7787 22.0827 16.0071 21.869 16.1187 21.7949C16.2379 21.7159 16.3446 21.6995 16.4122 21.6995V23.6995ZM17.7787 22.4565V21.4844H15.7787V22.4565H17.7787ZM16.7787 22.4844H17.8782V20.4844H16.7787V22.4844ZM17.8782 22.4844C18.1483 22.4844 18.4382 22.4137 18.69 22.2467C18.9343 22.0847 19.2447 21.7495 19.2447 21.2414H17.2447C17.2447 20.8676 17.4731 20.6539 17.5847 20.5798C17.7039 20.5008 17.8106 20.4844 17.8782 20.4844V22.4844ZM19.2447 21.2414V14.9228H17.2447V21.2414H19.2447ZM19.2447 14.9228C19.2447 14.4148 18.9343 14.0796 18.69 13.9176C18.4382 13.7506 18.1483 13.6798 17.8782 13.6798V15.6798C17.8106 15.6798 17.7039 15.6635 17.5847 15.5844C17.4731 15.5104 17.2447 15.2967 17.2447 14.9228H19.2447ZM17.8782 13.6798H16.7787V15.6798H17.8782V13.6798ZM17.7787 14.6798V13.4647H15.7787V14.6798H17.7787ZM17.7787 13.4647C17.7787 12.9566 17.4683 12.6214 17.224 12.4594C16.9722 12.2924 16.6823 12.2217 16.4122 12.2217V14.2217C16.3446 14.2217 16.2379 14.2053 16.1187 14.1263C16.0071 14.0522 15.7787 13.8386 15.7787 13.4647H17.7787ZM16.5117 15.1659V20.9984H18.5117V15.1659H16.5117ZM17.5117 19.9984H15.3127V21.9984H17.5117V19.9984ZM16.3127 20.9984V15.1659H14.3127V20.9984H16.3127ZM15.3127 16.1659H17.5117V14.1659H15.3127V16.1659Z" fill="url(#paint3_linear_323_10641)" mask="url(#path-5-inside-1_323_10641)"/>
<mask id="path-7-inside-2_323_10641" fill="white">
<path d="M21.2434 14.8013C21.0594 14.8013 20.9102 14.9028 20.9102 15.0281V16.1622H19.9107C19.7267 16.1622 19.5775 16.2638 19.5775 16.389V22.2864C19.5775 22.4116 19.7267 22.5132 19.9107 22.5132H20.9102V23.4205C20.9102 23.5457 21.0594 23.6473 21.2434 23.6473C21.4274 23.6473 21.5766 23.5457 21.5766 23.4205V22.5132H22.5762C22.7602 22.5132 22.9093 22.4116 22.9093 22.2864V16.389C22.9093 16.2638 22.7602 16.1622 22.5762 16.1622H21.5766V15.0281C21.5766 14.9028 21.4274 14.8013 21.2434 14.8013ZM22.243 16.6158V22.0595H20.2439V16.6158H22.243Z"/>
</mask>
<path d="M21.2434 14.8013C21.0594 14.8013 20.9102 14.9028 20.9102 15.0281V16.1622H19.9107C19.7267 16.1622 19.5775 16.2638 19.5775 16.389V22.2864C19.5775 22.4116 19.7267 22.5132 19.9107 22.5132H20.9102V23.4205C20.9102 23.5457 21.0594 23.6473 21.2434 23.6473C21.4274 23.6473 21.5766 23.5457 21.5766 23.4205V22.5132H22.5762C22.7602 22.5132 22.9093 22.4116 22.9093 22.2864V16.389C22.9093 16.2638 22.7602 16.1622 22.5762 16.1622H21.5766V15.0281C21.5766 14.9028 21.4274 14.8013 21.2434 14.8013ZM22.243 16.6158V22.0595H20.2439V16.6158H22.243Z" fill="url(#paint4_linear_323_10641)"/>
<path d="M20.9102 16.1622V17.1622H21.9102V16.1622H20.9102ZM20.9102 22.5132H21.9102V21.5132H20.9102V22.5132ZM21.5766 22.5132V21.5132H20.5766V22.5132H21.5766ZM21.5766 16.1622H20.5766V17.1622H21.5766V16.1622ZM22.243 16.6158H23.243V15.6158H22.243V16.6158ZM22.243 22.0595V23.0595H23.243V22.0595H22.243ZM20.2439 22.0595H19.2439V23.0595H20.2439V22.0595ZM20.2439 16.6158V15.6158H19.2439V16.6158H20.2439ZM21.2434 13.8013C20.9772 13.8013 20.692 13.873 20.4451 14.0411C20.2034 14.2056 19.9102 14.5368 19.9102 15.0281H21.9102C21.9102 15.3941 21.6917 15.6119 21.5706 15.6943C21.4443 15.7803 21.3256 15.8013 21.2434 15.8013V13.8013ZM19.9102 15.0281V16.1622H21.9102V15.0281H19.9102ZM20.9102 15.1622H19.9107V17.1622H20.9102V15.1622ZM19.9107 15.1622C19.6445 15.1622 19.3593 15.2339 19.1124 15.402C18.8707 15.5665 18.5775 15.8977 18.5775 16.389H20.5775C20.5775 16.7551 20.3589 16.9728 20.2379 17.0553C20.1116 17.1412 19.9929 17.1622 19.9107 17.1622V15.1622ZM18.5775 16.389V22.2864H20.5775V16.389H18.5775ZM18.5775 22.2864C18.5775 22.7777 18.8707 23.1088 19.1124 23.2734C19.3593 23.4414 19.6445 23.5132 19.9107 23.5132V21.5132C19.9929 21.5132 20.1116 21.5341 20.2379 21.6201C20.3589 21.7025 20.5775 21.9203 20.5775 22.2864H18.5775ZM19.9107 23.5132H20.9102V21.5132H19.9107V23.5132ZM19.9102 22.5132V23.4205H21.9102V22.5132H19.9102ZM19.9102 23.4205C19.9102 23.9118 20.2034 24.2429 20.4451 24.4075C20.692 24.5755 20.9772 24.6473 21.2434 24.6473V22.6473C21.3256 22.6473 21.4443 22.6682 21.5706 22.7542C21.6917 22.8366 21.9102 23.0544 21.9102 23.4205H19.9102ZM21.2434 24.6473C21.5096 24.6473 21.7949 24.5755 22.0418 24.4075C22.2834 24.2429 22.5766 23.9118 22.5766 23.4205H20.5766C20.5766 23.0544 20.7952 22.8366 20.9163 22.7542C21.0426 22.6682 21.1612 22.6473 21.2434 22.6473V24.6473ZM22.5766 23.4205V22.5132H20.5766V23.4205H22.5766ZM21.5766 23.5132H22.5762V21.5132H21.5766V23.5132ZM22.5762 23.5132C22.8423 23.5132 23.1276 23.4414 23.3745 23.2734C23.6162 23.1088 23.9093 22.7777 23.9093 22.2864H21.9093C21.9093 21.9203 22.1279 21.7025 22.249 21.6201C22.3753 21.5341 22.494 21.5132 22.5762 21.5132V23.5132ZM23.9093 22.2864V16.389H21.9093V22.2864H23.9093ZM23.9093 16.389C23.9093 15.8977 23.6162 15.5665 23.3745 15.402C23.1276 15.2339 22.8423 15.1622 22.5762 15.1622V17.1622C22.494 17.1622 22.3753 17.1412 22.249 17.0553C22.1279 16.9728 21.9093 16.7551 21.9093 16.389H23.9093ZM22.5762 15.1622H21.5766V17.1622H22.5762V15.1622ZM22.5766 16.1622V15.0281H20.5766V16.1622H22.5766ZM22.5766 15.0281C22.5766 14.5368 22.2834 14.2056 22.0418 14.0411C21.7949 13.873 21.5096 13.8013 21.2434 13.8013V15.8013C21.1612 15.8013 21.0426 15.7803 20.9163 15.6943C20.7952 15.6119 20.5766 15.3941 20.5766 15.0281H22.5766ZM21.243 16.6158V22.0595H23.243V16.6158H21.243ZM22.243 21.0595H20.2439V23.0595H22.243V21.0595ZM21.2439 22.0595V16.6158H19.2439V22.0595H21.2439ZM20.2439 17.6158H22.243V15.6158H20.2439V17.6158Z" fill="url(#paint5_linear_323_10641)" mask="url(#path-7-inside-2_323_10641)"/>
<mask id="path-9-inside-3_323_10641" fill="white">
<path d="M11.5811 15.1173C11.3971 15.1173 11.2479 15.2261 11.2479 15.3603V16.5754H10.2483C10.0643 16.5754 9.91516 16.6843 9.91516 16.8185V23.137C9.91516 23.2712 10.0643 23.3801 10.2483 23.3801H11.2479V24.3521C11.2479 24.4864 11.3971 24.5952 11.5811 24.5952C11.7651 24.5952 11.9143 24.4864 11.9143 24.3521V23.3801H12.9138C13.0978 23.3801 13.247 23.2712 13.247 23.137V16.8185C13.247 16.6843 13.0978 16.5754 12.9138 16.5754H11.9143V15.3603C11.9143 15.2261 11.7651 15.1173 11.5811 15.1173ZM12.5806 17.0615V22.894H10.5815V17.0615H12.5806Z"/>
</mask>
<path d="M11.5811 15.1173C11.3971 15.1173 11.2479 15.2261 11.2479 15.3603V16.5754H10.2483C10.0643 16.5754 9.91516 16.6843 9.91516 16.8185V23.137C9.91516 23.2712 10.0643 23.3801 10.2483 23.3801H11.2479V24.3521C11.2479 24.4864 11.3971 24.5952 11.5811 24.5952C11.7651 24.5952 11.9143 24.4864 11.9143 24.3521V23.3801H12.9138C13.0978 23.3801 13.247 23.2712 13.247 23.137V16.8185C13.247 16.6843 13.0978 16.5754 12.9138 16.5754H11.9143V15.3603C11.9143 15.2261 11.7651 15.1173 11.5811 15.1173ZM12.5806 17.0615V22.894H10.5815V17.0615H12.5806Z" fill="url(#paint6_linear_323_10641)"/>
<path d="M11.2479 16.5754V17.5754H12.2479V16.5754H11.2479ZM11.2479 23.3801H12.2479V22.3801H11.2479V23.3801ZM11.9143 23.3801V22.3801H10.9143V23.3801H11.9143ZM11.9143 16.5754H10.9143V17.5754H11.9143V16.5754ZM12.5806 17.0615H13.5806V16.0615H12.5806V17.0615ZM12.5806 22.894V23.894H13.5806V22.894H12.5806ZM10.5815 22.894H9.58153V23.894H10.5815V22.894ZM10.5815 17.0615V16.0615H9.58153V17.0615H10.5815ZM11.5811 14.1173C11.3 14.1173 11.0051 14.199 10.7562 14.3806C10.5081 14.5615 10.2479 14.8957 10.2479 15.3603H12.2479C12.2479 15.6907 12.0622 15.9034 11.9348 15.9964C11.8064 16.09 11.6782 16.1173 11.5811 16.1173V14.1173ZM10.2479 15.3603V16.5754H12.2479V15.3603H10.2479ZM11.2479 15.5754H10.2483V17.5754H11.2479V15.5754ZM10.2483 15.5754C9.96726 15.5754 9.67238 15.6571 9.42346 15.8387C9.1754 16.0196 8.91516 16.3538 8.91516 16.8185H10.9152C10.9152 17.1489 10.7295 17.3616 10.602 17.4545C10.4737 17.5481 10.3454 17.5754 10.2483 17.5754V15.5754ZM8.91516 16.8185V23.137H10.9152V16.8185H8.91516ZM8.91516 23.137C8.91516 23.6017 9.1754 23.9359 9.42346 24.1168C9.67238 24.2984 9.96726 24.3801 10.2483 24.3801V22.3801C10.3454 22.3801 10.4737 22.4074 10.602 22.501C10.7295 22.5939 10.9152 22.8066 10.9152 23.137H8.91516ZM10.2483 24.3801H11.2479V22.3801H10.2483V24.3801ZM10.2479 23.3801V24.3521H12.2479V23.3801H10.2479ZM10.2479 24.3521C10.2479 24.8168 10.5081 25.151 10.7562 25.3319C11.0051 25.5135 11.3 25.5952 11.5811 25.5952V23.5952C11.6782 23.5952 11.8064 23.6225 11.9348 23.7161C12.0622 23.809 12.2479 24.0217 12.2479 24.3521H10.2479ZM11.5811 25.5952C11.8622 25.5952 12.157 25.5135 12.406 25.3319C12.654 25.151 12.9143 24.8168 12.9143 24.3521H10.9143C10.9143 24.0217 11.0999 23.809 11.2274 23.7161C11.3557 23.6225 11.484 23.5952 11.5811 23.5952V25.5952ZM12.9143 24.3521V23.3801H10.9143V24.3521H12.9143ZM11.9143 24.3801H12.9138V22.3801H11.9143V24.3801ZM12.9138 24.3801C13.1949 24.3801 13.4898 24.2984 13.7387 24.1168C13.9868 23.9359 14.247 23.6017 14.247 23.137H12.247C12.247 22.8066 12.4326 22.5939 12.5601 22.501C12.6884 22.4074 12.8167 22.3801 12.9138 22.3801V24.3801ZM14.247 23.137V16.8185H12.247V23.137H14.247ZM14.247 16.8185C14.247 16.3538 13.9868 16.0196 13.7387 15.8387C13.4898 15.6571 13.1949 15.5754 12.9138 15.5754V17.5754C12.8167 17.5754 12.6884 17.5481 12.5601 17.4545C12.4326 17.3616 12.247 17.1489 12.247 16.8185H14.247ZM12.9138 15.5754H11.9143V17.5754H12.9138V15.5754ZM12.9143 16.5754V15.3603H10.9143V16.5754H12.9143ZM12.9143 15.3603C12.9143 14.8957 12.654 14.5615 12.406 14.3806C12.157 14.199 11.8622 14.1173 11.5811 14.1173V16.1173C11.484 16.1173 11.3557 16.09 11.2274 15.9964C11.0999 15.9034 10.9143 15.6907 10.9143 15.3603H12.9143ZM11.5806 17.0615V22.894H13.5806V17.0615H11.5806ZM12.5806 21.894H10.5815V23.894H12.5806V21.894ZM11.5815 22.894V17.0615H9.58153V22.894H11.5815ZM10.5815 18.0615H12.5806V16.0615H10.5815V18.0615Z" fill="url(#paint7_linear_323_10641)" mask="url(#path-9-inside-3_323_10641)"/>
</g>
</g>
</g>
<defs>
<linearGradient id="paint0_linear_323_10641" x1="53.7807" y1="20.0818" x2="23.7953" y2="15.5615" gradientUnits="userSpaceOnUse">
<stop stopColor="#FD748F"/>
<stop offset="0.505208" stopColor="#FE2C89"/>
<stop offset="0.994792" stopColor="#FD748F"/>
</linearGradient>
<linearGradient id="paint1_linear_323_10641" x1="35.0496" y1="28.0516" x2="5.49288" y2="22.3228" gradientUnits="userSpaceOnUse">
<stop stopColor="#FD748F"/>
<stop offset="0.505208" stopColor="#FE2C89"/>
<stop offset="0.994792" stopColor="#FD748F"/>
</linearGradient>
<linearGradient id="paint2_linear_323_10641" x1="21.2481" y1="13.2217" x2="13.4209" y2="12.0568" gradientUnits="userSpaceOnUse">
<stop stopColor="#FD748F"/>
<stop offset="0.505208" stopColor="#FE2C89"/>
<stop offset="0.994792" stopColor="#FD748F"/>
</linearGradient>
<linearGradient id="paint3_linear_323_10641" x1="21.2481" y1="13.2217" x2="13.4209" y2="12.0568" gradientUnits="userSpaceOnUse">
<stop stopColor="#FD748F"/>
<stop offset="0.505208" stopColor="#FE2C89"/>
<stop offset="0.994792" stopColor="#FD748F"/>
</linearGradient>
<linearGradient id="paint4_linear_323_10641" x1="25.6397" y1="14.8013" x2="18.5162" y2="13.7687" gradientUnits="userSpaceOnUse">
<stop stopColor="#FD748F"/>
<stop offset="0.505208" stopColor="#FE2C89"/>
<stop offset="0.994792" stopColor="#FD748F"/>
</linearGradient>
<linearGradient id="paint5_linear_323_10641" x1="25.6397" y1="14.8013" x2="18.5162" y2="13.7687" gradientUnits="userSpaceOnUse">
<stop stopColor="#FD748F"/>
<stop offset="0.505208" stopColor="#FE2C89"/>
<stop offset="0.994792" stopColor="#FD748F"/>
</linearGradient>
<linearGradient id="paint6_linear_323_10641" x1="15.9773" y1="15.1173" x2="8.83486" y2="14.151" gradientUnits="userSpaceOnUse">
<stop stopColor="#FD748F"/>
<stop offset="0.505208" stopColor="#FE2C89"/>
<stop offset="0.994792" stopColor="#FD748F"/>
</linearGradient>
<linearGradient id="paint7_linear_323_10641" x1="15.9773" y1="15.1173" x2="8.83486" y2="14.151" gradientUnits="userSpaceOnUse">
<stop stopColor="#FD748F"/>
<stop offset="0.505208" stopColor="#FE2C89"/>
<stop offset="0.994792" stopColor="#FD748F"/>
</linearGradient>
<clipPath id="clip0_323_10641">
<rect width="61" height="56" fill="white"/>
</clipPath>
<clipPath id="clip1_323_10641">
<rect width="18.6305" height="15.8539" fill="white" transform="translate(6.91138 12.2739)"/>
</clipPath>
<clipPath id="clip2_323_10641">
<rect width="14.8504" height="12.6371" fill="white" transform="translate(8.80139 12.2739)"/>
</clipPath>
</defs>
</svg>
