<svg width="36" height="36" viewBox="0 0 36 36" fill="none" xmlns="http://www.w3.org/2000/svg">
<path d="M5.53846 0V26.3077C5.53846 27.0762 4.92231 27.6923 4.15385 27.6923C3.38538 27.6923 2.76923 27.0762 2.76923 26.3077V9.69231H4.15385V6.92308H0V26.3077C0 28.5854 1.87615 30.4615 4.15385 30.4615H18C17.7231 29.6308 17.5666 28.6615 17.5666 27.6923H8.05015C8.208 27.2548 8.30908 26.7965 8.30908 26.3077V2.76923H30.4629V18C31.4322 18.2769 32.4014 18.6923 33.2322 19.3846V0H5.53846ZM11.0769 5.53846V11.0769H27.6923V5.53846H11.0769ZM11.0769 13.8462V16.6154H18V13.8462H11.0769ZM20.7692 13.8462V16.6154H27.6923V13.8462H20.7692ZM11.0769 18V20.7692H18V18H11.0769ZM27.6923 19.3846C23.0898 19.3846 19.3846 23.0898 19.3846 27.6923C19.3846 32.2948 23.0898 36 27.6923 36V33.2308C24.5409 33.2308 22.1538 30.8437 22.1538 27.6923C22.1538 24.5409 24.5409 22.1538 27.6923 22.1538C30.8437 22.1538 33.2308 24.5409 33.2308 27.6923C33.2308 28.8942 32.8888 30.0046 32.2782 30.8949L30.4615 29.0769L29.7692 35.3077L36 34.6154L34.2692 32.8846C35.4198 31.4391 36 29.5989 36 27.6923C36 23.0898 32.2948 19.3846 27.6923 19.3846ZM11.0769 22.1538V24.9231H18V22.1538H11.0769Z" fill="url(#paint0_linear_323_10662)"/>
<defs>
<linearGradient id="paint0_linear_323_10662" x1="18" y1="0" x2="18" y2="36" gradientUnits="userSpaceOnUse">
<stop stopColor="#E6E6E6"/>
<stop offset="1" stopColor="#F9F9F9"/>
</linearGradient>
</defs>
</svg>
