<svg width="58" height="58" viewBox="0 0 58 58" fill="none" xmlns="http://www.w3.org/2000/svg">
<g clipPath="url(#clip0_328_33696)">
<path d="M28.8144 0C21.1741 0 13.8399 3.03767 8.44172 8.43947C3.03795 13.8434 0.00149686 21.1722 0 28.8144C0 36.4534 3.03902 43.7876 8.44172 49.1894C13.8399 54.5912 21.1741 57.6288 28.8144 57.6288C36.4547 57.6288 43.7889 54.5912 49.1871 49.1894C54.5898 43.7876 57.6288 36.4534 57.6288 28.8144C57.6288 21.1754 54.5898 13.8413 49.1871 8.43947C43.7889 3.03767 36.4547 0 28.8144 0Z" fill="url(#paint0_linear_328_33696)"/>
<path d="M13.043 28.5101C21.4442 24.8506 27.045 22.4379 29.8454 21.2722C37.8504 17.9437 39.5118 17.3656 40.5968 17.3461C40.8354 17.3422 41.3667 17.4012 41.7134 17.6815C42.0015 17.9178 42.0826 18.2375 42.1231 18.4619C42.1591 18.6862 42.2086 19.1972 42.1681 19.5961C41.7359 24.1523 39.8584 35.209 38.904 40.3123C38.5033 42.4716 37.7064 43.1955 36.9365 43.2662C35.2616 43.4202 33.992 42.1604 32.3712 41.0984C29.8364 39.4357 28.4047 38.4011 25.942 36.7789C23.0966 34.9042 24.9425 33.8736 26.5633 32.1898C26.9865 31.749 34.3612 25.0429 34.5008 24.4346C34.5188 24.3585 34.5368 24.0749 34.3657 23.9254C34.1991 23.7755 33.9515 23.8268 33.7714 23.8673C33.5148 23.925 29.4672 26.6029 21.6153 31.9007C20.4672 32.6904 19.4272 33.0754 18.4908 33.0551C17.4642 33.033 15.4832 32.4734 14.011 31.9953C12.2101 31.4086 10.7739 31.0984 10.9 30.1021C10.963 29.5834 11.6788 29.0526 13.043 28.5101Z" fill="white"/>
</g>
<defs>
<linearGradient id="paint0_linear_328_33696" x1="2881.44" y1="0" x2="2881.44" y2="5762.88" gradientUnits="userSpaceOnUse">
<stop stopColor="#2AABEE"/>
<stop offset="1" stopColor="#229ED9"/>
</linearGradient>
<clipPath id="clip0_328_33696">
<rect width="57.6288" height="57.6288" fill="white"/>
</clipPath>
</defs>
</svg>
