<svg width="16" height="17" viewBox="0 0 16 17" fill="none" xmlns="http://www.w3.org/2000/svg">
<path d="M12.4001 2.36035C11.7374 2.36035 11.2001 2.89761 11.2001 3.56035V13.9604C11.2001 14.6231 11.7374 15.1604 12.4001 15.1604H13.2001C13.8628 15.1604 14.4001 14.6231 14.4001 13.9604V3.56035C14.4001 2.89761 13.8628 2.36035 13.2001 2.36035H12.4001Z" fill="currentColor"/>
<path d="M7.6001 5.56035C6.93736 5.56035 6.4001 6.09761 6.4001 6.76035V13.9604C6.4001 14.6231 6.93736 15.1604 7.6001 15.1604H8.4001C9.06284 15.1604 9.6001 14.6231 9.6001 13.9604V6.76035C9.6001 6.09761 9.06284 5.56035 8.4001 5.56035H7.6001Z" fill="currentColor"/>
<path d="M2.8001 8.76035C2.13736 8.76035 1.6001 9.29761 1.6001 9.96035V13.9604C1.6001 14.6231 2.13736 15.1604 2.8001 15.1604H3.6001C4.26284 15.1604 4.8001 14.6231 4.8001 13.9604V9.96035C4.8001 9.29761 4.26284 8.76035 3.6001 8.76035H2.8001Z" fill="currentColor"/>
</svg>
