<svg width="57" height="56" viewBox="0 0 57 56" fill="none" xmlns="http://www.w3.org/2000/svg">
<g clipPath="url(#clip0_328_33702)">
<rect x="10.7217" y="14.1984" width="35.9136" height="27.5616" fill="white"/>
<path d="M28.6785 0.317383C13.4011 0.317383 1.0167 12.7018 1.0167 27.9792C1.0167 43.2566 13.4011 55.6411 28.6785 55.6411C43.956 55.6411 56.3404 43.2566 56.3404 27.9792C56.3404 12.7018 43.956 0.317383 28.6785 0.317383ZM39.3168 31.5263C39.3168 31.5263 41.7632 33.9409 42.3654 35.0618C42.3827 35.0849 42.3913 35.1079 42.3971 35.1194C42.642 35.5315 42.6996 35.8513 42.5786 36.0905C42.3769 36.4881 41.6854 36.6841 41.4491 36.7014H37.1269C36.8273 36.7014 36.1991 36.6236 35.4384 36.0991C34.8535 35.69 34.2772 35.0186 33.7153 34.3645C32.8768 33.3906 32.1507 32.5492 31.4188 32.5492C31.3258 32.549 31.2334 32.5636 31.1451 32.5924C30.5918 32.7711 29.883 33.5606 29.883 35.664C29.883 36.321 29.3643 36.6985 28.9984 36.6985H27.0188C26.3446 36.6985 22.8321 36.4622 19.7201 33.1802C15.9109 29.1606 12.482 21.0983 12.4531 21.0234C12.237 20.5019 12.6837 20.2224 13.1706 20.2224H17.536C18.1181 20.2224 18.3082 20.5768 18.4408 20.8909C18.5964 21.2568 19.1669 22.712 20.1034 24.3486C21.6219 27.0168 22.5526 28.1003 23.2989 28.1003C23.4388 28.0986 23.5763 28.063 23.6994 27.9965C24.6733 27.4548 24.4918 23.9827 24.4486 23.2623C24.4486 23.1269 24.4457 21.7092 23.9472 21.0292C23.5899 20.5365 22.9819 20.3492 22.6131 20.28C22.7624 20.074 22.9591 19.907 23.1865 19.7931C23.855 19.4588 25.0595 19.4098 26.2553 19.4098H26.9209C28.2175 19.4271 28.5518 19.5107 29.0214 19.6288C29.9723 19.8564 29.9925 20.4702 29.9089 22.5708C29.883 23.1672 29.8571 23.8415 29.8571 24.6368C29.8571 24.8096 29.8484 24.9941 29.8484 25.19C29.8196 26.259 29.785 27.4721 30.54 27.9706C30.6384 28.0323 30.7522 28.0653 30.8684 28.0657C31.1307 28.0657 31.9202 28.0657 34.0582 24.3976C34.7176 23.2169 35.2906 21.9901 35.7727 20.7266C35.8159 20.6517 35.9427 20.4212 36.0925 20.3319C36.2031 20.2755 36.3257 20.2468 36.4498 20.2483H41.5816C42.1406 20.2483 42.5239 20.3319 42.5959 20.548C42.7227 20.8909 42.5729 21.9368 40.2303 25.1093L39.1843 26.4895C37.0607 29.273 37.0607 29.4142 39.3168 31.5263Z" fill="#016EC9"/>
</g>
<defs>
<clipPath id="clip0_328_33702">
<rect width="55.9584" height="55.9584" fill="white" transform="translate(0.699326)"/>
</clipPath>
</defs>
</svg>
