<svg width="212" height="222" viewBox="0 0 212 222" fill="none" xmlns="http://www.w3.org/2000/svg">
<rect width="14" height="78" rx="4" transform="matrix(1 0 0 -1 123 168)" fill="#CCCCCC" fill-opacity="0.2"/>
<rect width="15" height="16" rx="4" transform="matrix(1 0 0 -1 148 190)" fill="#CCCCCC" fill-opacity="0.2"/>
<rect width="14" height="37" rx="4" transform="matrix(1 0 0 -1 173 184)" fill="#CCCCCC" fill-opacity="0.2"/>
<rect width="14" height="73" rx="4" transform="matrix(1 0 0 -1 198 222)" fill="#CCCCCC" fill-opacity="0.2"/>
<rect width="14" height="78" rx="4" transform="matrix(1 0 0 -1 98 129)" fill="#CCCCCC" fill-opacity="0.2"/>
<rect width="15" height="40" rx="4" transform="matrix(1 0 0 -1 72 95)" fill="#CCCCCC" fill-opacity="0.2"/>
<rect width="14" height="44" rx="4" transform="matrix(1 0 0 -1 49 131)" fill="#CCCCCC" fill-opacity="0.2"/>
<rect width="14" height="48" rx="4" transform="matrix(1 0 0 -1 24 48)" fill="#CCCCCC" fill-opacity="0.2"/>
<rect width="14" height="24" rx="4" transform="matrix(1 0 0 -1 0 67)" fill="#CCCCCC" fill-opacity="0.2"/>
</svg>
